<svg width="90" height="91" viewBox="0 0 90 91" fill="none" xmlns="http://www.w3.org/2000/svg">
<path d="M18 12.5C14.685 12.5 12 15.185 12 18.5V72.5C12 75.815 14.685 78.5 18 78.5H72C75.315 78.5 78 75.815 78 72.5V18.5C78 15.185 75.315 12.5 72 12.5H18ZM24 30.4766H35.9355C41.8425 30.4766 45.8848 34.5174 45.8848 40.4844C45.8848 46.3494 41.695 50.3691 35.707 50.3691H29.291V60.0723H24V30.4766ZM29.291 34.9062V45.9805H34.5234C38.2974 45.9805 40.5117 44.0124 40.5117 40.4844C40.5117 36.8574 38.354 34.9062 34.541 34.9062H29.291ZM57.6211 37.1797C62.9521 37.1797 66.299 39.5391 66.668 43.6191H61.8926C61.5236 42.0411 60.0235 41.0352 57.6445 41.0352C55.3285 41.0352 53.584 42.1456 53.584 43.7656C53.584 45.0376 54.6503 45.8162 56.9062 46.3262L60.8613 47.2285C65.1483 48.1915 67.1367 50.0398 67.1367 53.3398C67.1367 57.6508 63.1781 60.5234 57.5801 60.5234C51.9821 60.5234 48.4545 58.0995 48.0645 54.0195H53.0918C53.5838 55.6815 55.1591 56.668 57.7031 56.668C60.2651 56.668 62.0508 55.5409 62.0508 53.8789C62.0508 52.6069 61.09 51.8041 58.957 51.3301L54.9785 50.4102C50.6705 49.4262 48.6445 47.4367 48.6445 44.0527C48.6445 39.9907 52.3291 37.1797 57.6211 37.1797Z" fill="#080F56"/>
</svg>
