<svg width="90" height="91" viewBox="0 0 90 91" fill="none" xmlns="http://www.w3.org/2000/svg">
<path d="M30 87.5225C23.373 87.5225 18 82.1495 18 75.5225C18 68.8955 23.373 63.5225 30 63.5225H38.571C40.464 63.5225 42 65.0585 42 66.9515V75.5225C42 82.1495 36.627 87.5225 30 87.5225ZM60 27.5225H51.429C49.536 27.5225 48 25.9865 48 24.0935V6.95146C48 5.05846 49.536 3.52246 51.429 3.52246H60C66.627 3.52246 72 8.89546 72 15.5225C72 22.1495 66.627 27.5225 60 27.5225ZM30 3.52246H38.571C40.464 3.52246 42 5.05846 42 6.95146V24.0935C42 25.9865 40.464 27.5225 38.571 27.5225H30C23.373 27.5225 18 22.1495 18 15.5225C18 8.89546 23.373 3.52246 30 3.52246ZM30 33.5225H38.571C40.464 33.5225 42 35.0585 42 36.9515V54.0935C42 55.9865 40.464 57.5225 38.571 57.5225H30C23.373 57.5225 18 52.1495 18 45.5225C18 38.8955 23.373 33.5225 30 33.5225ZM60 33.5225C56.8174 33.5225 53.7652 34.7867 51.5147 37.0372C49.2643 39.2876 48 42.3399 48 45.5225C48 48.7051 49.2643 51.7573 51.5147 54.0077C53.7652 56.2582 56.8174 57.5225 60 57.5225C63.1826 57.5225 66.2348 56.2582 68.4853 54.0077C70.7357 51.7573 72 48.7051 72 45.5225C72 42.3399 70.7357 39.2876 68.4853 37.0372C66.2348 34.7867 63.1826 33.5225 60 33.5225Z" fill="#080F56"/>
</svg>
