<svg width="90" height="168" viewBox="0 0 90 168" fill="none" xmlns="http://www.w3.org/2000/svg">
<path d="M45 9.52246C25.119 9.52246 9 25.6415 9 45.5225C9 62.3915 20.616 76.5065 36.276 80.4125C36.108 79.9265 36 79.3625 36 78.6635V72.5105C34.539 72.5105 32.091 72.5105 31.476 72.5105C29.013 72.5105 26.823 71.4515 25.761 69.4835C24.582 67.2965 24.378 63.9515 21.456 61.9055C20.589 61.2245 21.249 60.4475 22.248 60.5525C24.093 61.0745 25.623 62.3405 27.063 64.2185C28.497 66.0995 29.172 66.5255 31.851 66.5255C33.15 66.5255 35.094 66.4505 36.924 66.1625C37.908 63.6635 39.609 61.3625 41.688 60.2765C29.7 59.0435 23.979 53.0795 23.979 44.9825C23.979 41.4965 25.464 38.1245 27.987 35.2835C27.159 32.4635 26.118 26.7125 28.305 24.5225C33.699 24.5225 36.96 28.0205 37.743 28.9655C40.431 28.0445 43.383 27.5225 46.485 27.5225C49.593 27.5225 52.557 28.0445 55.251 28.9715C56.025 28.0325 59.289 24.5225 64.695 24.5225C66.891 26.7155 65.838 32.4905 65.001 35.3045C67.509 38.1395 68.985 41.5025 68.985 44.9825C68.985 53.0735 63.273 59.0345 51.303 60.2735C54.597 61.9925 57 66.8225 57 70.4615V78.6635C57 78.9755 56.931 79.2005 56.895 79.4675C70.923 74.5505 81 61.2305 81 45.5225C81 25.6415 64.881 9.52246 45 9.52246Z" fill="#080F56"/>
<path d="M40.1173 145.002C39.8133 144.442 39.3733 144.018 38.7973 143.73C38.2373 143.426 37.5733 143.274 36.8053 143.274C35.4773 143.274 34.4133 143.714 33.6133 144.594C32.8133 145.458 32.4133 146.618 32.4133 148.074C32.4133 149.626 32.8293 150.842 33.6613 151.722C34.5093 152.586 35.6693 153.018 37.1413 153.018C38.1493 153.018 38.9973 152.762 39.6853 152.25C40.3893 151.738 40.9013 151.002 41.2213 150.042H36.0133V147.018H44.9413V150.834C44.6373 151.858 44.1173 152.81 43.3813 153.69C42.6613 154.57 41.7413 155.282 40.6213 155.826C39.5013 156.37 38.2373 156.642 36.8293 156.642C35.1653 156.642 33.6773 156.282 32.3653 155.562C31.0693 154.826 30.0533 153.81 29.3173 152.514C28.5973 151.218 28.2373 149.738 28.2373 148.074C28.2373 146.41 28.5973 144.93 29.3173 143.634C30.0533 142.322 31.0693 141.306 32.3653 140.586C33.6613 139.85 35.1413 139.482 36.8053 139.482C38.8213 139.482 40.5173 139.97 41.8933 140.946C43.2853 141.922 44.2053 143.274 44.6533 145.002H40.1173ZM49.2786 141.738C48.5586 141.738 47.9666 141.53 47.5026 141.114C47.0546 140.682 46.8306 140.154 46.8306 139.53C46.8306 138.89 47.0546 138.362 47.5026 137.946C47.9666 137.514 48.5586 137.298 49.2786 137.298C49.9826 137.298 50.5586 137.514 51.0066 137.946C51.4706 138.362 51.7026 138.89 51.7026 139.53C51.7026 140.154 51.4706 140.682 51.0066 141.114C50.5586 141.53 49.9826 141.738 49.2786 141.738ZM51.3186 143.13V156.522H47.2146V143.13H51.3186ZM61.7567 153.042V156.522H59.6687C58.1807 156.522 57.0207 156.162 56.1887 155.442C55.3567 154.706 54.9407 153.514 54.9407 151.866V146.538H53.3087V143.13H54.9407V139.866H59.0447V143.13H61.7327V146.538H59.0447V151.914C59.0447 152.314 59.1407 152.602 59.3327 152.778C59.5247 152.954 59.8447 153.042 60.2927 153.042H61.7567Z" fill="#080F56"/>
</svg>
