<svg width="90" height="90" viewBox="0 0 90 90" fill="none" xmlns="http://www.w3.org/2000/svg">
<g clip-path="url(#clip0_520_342)">
<path d="M52.9863 -0.046875C57.5703 9.19012 36.573 14.89 34.623 22.582C32.838 29.65 47.0885 37.8633 47.1035 37.8633C44.9375 34.9413 43.3723 32.5267 41.1973 27.9727C37.5193 20.2717 62.8983 12.3251 52.9863 -0.046875ZM68.168 12.5918C68.168 12.5918 52.1588 13.5585 51.3398 23.3145C50.9768 27.6585 55.5468 29.9786 55.6758 33.1406C55.7868 35.7236 52.9453 37.8691 52.9453 37.8691C52.9453 37.8691 57.6331 37.1499 59.2441 33.2109C61.0261 28.8429 56.2433 25.6553 56.7773 22.1543C57.2873 18.8063 68.168 12.5918 68.168 12.5918ZM38.2852 37.8691C38.2852 37.8691 21.832 37.6505 21.832 42.2285C21.829 47.0135 43.3738 47.3482 58.7578 44.4082C58.7578 44.4082 62.2478 42.4958 63.3398 41.4668C53.2598 43.4858 30.8613 42.9024 30.8613 41.1504C30.8613 39.5364 38.2852 37.8691 38.2852 37.8691ZM71.0449 37.9922C69.2374 37.9164 67.2591 38.4917 65.5547 39.709C69.1157 38.938 72.1172 41.1292 72.1172 43.6582C72.1172 49.3402 63.9551 54.7207 63.9551 54.7207C63.9551 54.7207 76.5938 53.2669 76.5938 43.9219C76.5938 40.0631 74.0574 38.1185 71.0449 37.9922ZM32.4492 46.2949C29.8752 46.2919 26.0449 48.3349 26.0449 50.2969C26.0449 54.2449 45.4082 57.2875 59.7422 51.5215L54.7793 48.3984C45.0623 51.5874 27.1452 50.5639 32.4492 46.2949ZM36.0879 54.7148C32.5509 54.7148 30.2578 57.094 30.2578 58.834C30.2578 64.222 51.3722 64.4057 59.7422 58.9277L54.4219 55.6113C48.1759 58.4763 32.4729 58.8668 36.0879 54.7148ZM20.7598 62.9707C15.7178 62.8127 13.4062 65.3889 13.4062 67.4941C13.4062 78.6841 68.168 78.148 68.168 66.709C68.168 64.81 66.0532 63.9066 65.2852 63.4746C69.7552 74.4096 19.9512 73.66 19.9512 67.207C19.9512 65.737 22.5883 64.2379 25.9453 64.9219C25.9453 64.9219 24.7148 63.4929 23.0918 63.2109C22.2589 63.0673 21.48 62.9933 20.7598 62.9707ZM76.5938 71.3848C67.9027 79.8928 43.978 85.0577 21.832 79.8047C44.083 88.8227 76.4887 81.8278 76.5938 71.3848Z" fill="#080F56"/>
</g>
<defs>
<clipPath id="clip0_520_342">
<rect width="90" height="90" fill="white"/>
</clipPath>
</defs>
</svg>
