<svg width="90" height="90" viewBox="0 0 90 90" fill="none" xmlns="http://www.w3.org/2000/svg">
<path d="M39 9C32.373 9 27 14.373 27 21V24H42C43.656 24 45 25.344 45 27C45 28.656 43.656 30 42 30H27H24H21C14.373 30 9 35.373 9 42V54C9 60.627 14.373 66 21 66H24V51C24 46.038 28.038 42 33 42H57C58.656 42 60 40.656 60 39V21C60 14.373 54.627 9 48 9H39ZM36 15C37.656 15 39 16.344 39 18C39 19.656 37.656 21 36 21C34.344 21 33 19.656 33 18C33 16.344 34.344 15 36 15ZM66 24V39C66 43.962 61.962 48 57 48H33C31.344 48 30 49.344 30 51V69C30 75.627 35.373 81 42 81H51C57.627 81 63 75.627 63 69V66H48C46.344 66 45 64.656 45 63C45 61.344 46.344 60 48 60H63H66H69C75.627 60 81 54.627 81 48V36C81 29.373 75.627 24 69 24H66ZM54 69C55.656 69 57 70.344 57 72C57 73.656 55.656 75 54 75C52.344 75 51 73.656 51 72C51 70.344 52.344 69 54 69Z" fill="#080F56"/>
</svg>
