<svg width="90" height="90" viewBox="0 0 90 90" fill="none" xmlns="http://www.w3.org/2000/svg">
<path d="M32.0391 12.5449C30.2061 12.5449 28.506 12.9553 27 13.8223C22.2934 16.5396 20.5019 23.1616 21.4512 31.4062C13.8381 34.7065 9 39.566 9 45C9 50.434 13.8381 55.2935 21.4512 58.5938C20.5024 66.838 22.2934 73.4604 27 76.1777C28.503 77.0447 30.2031 77.4551 32.0391 77.4551C35.9469 77.4551 40.4635 75.4938 45 72.1289C49.5368 75.4938 54.0589 77.4551 57.9668 77.4551C59.7998 77.4551 61.4999 77.0447 63.0059 76.1777C67.7124 73.4604 69.5039 66.8383 68.5547 58.5938C76.1649 55.2935 81 50.4328 81 45C81 39.566 76.1619 34.7065 68.5488 31.4062C69.4976 23.162 67.7066 16.5396 63 13.8223C61.497 12.9523 59.7969 12.5449 57.9609 12.5449C54.0531 12.5449 49.5365 14.5062 45 17.8711C40.4633 14.5062 35.9456 12.5449 32.0391 12.5449ZM32.0391 17.7949C34.384 17.7949 37.4849 19.0417 40.8516 21.3516C38.8721 23.2196 36.9335 25.3438 35.0684 27.709C32.0432 28.1427 29.191 28.7751 26.5488 29.5664C26.5346 29.3832 26.501 29.1909 26.4902 29.0098C26.1692 23.6698 27.342 19.6891 29.625 18.3691C30.3 17.9791 31.0881 17.7949 32.0391 17.7949ZM57.9609 17.7949C58.9089 17.7949 59.7 17.9791 60.375 18.3691C62.658 19.6861 63.8308 23.6698 63.5098 29.0098C63.4989 29.1909 63.4654 29.3832 63.4512 29.5664C60.8073 28.7746 57.953 28.1428 54.9258 27.709C53.0607 25.3441 51.1278 23.2194 49.1484 21.3516C52.5149 19.0421 55.6173 17.7949 57.9609 17.7949ZM45 24.6855C45.8132 25.4258 46.6208 26.2081 47.4375 27.0645C46.6282 27.0373 45.8231 27 45 27C44.1789 27 43.3758 27.0374 42.5684 27.0645C43.3843 26.209 44.1875 25.4251 45 24.6855ZM45 32.25C47.4861 32.25 49.8424 32.389 52.0781 32.6309C53.4416 34.4841 54.7853 36.4434 56.0449 38.625C57.2522 40.7161 58.3198 42.8565 59.2617 45C58.3197 47.1448 57.2529 49.2885 56.0449 51.3809C54.7892 53.5561 53.4488 55.5028 52.0898 57.3516C49.7751 57.6048 47.4007 57.75 45 57.75C42.5139 57.75 40.1576 57.611 37.9219 57.3691C36.5584 55.5159 35.2147 53.5624 33.9551 51.3809C32.7471 49.2885 31.6806 47.1448 30.7383 45C31.6799 42.8565 32.7478 40.7161 33.9551 38.625C35.2113 36.4497 36.5508 34.4972 37.9102 32.6484C40.2249 32.3952 42.5993 32.25 45 32.25ZM59.2383 33.873C60.4285 34.1604 61.5728 34.4706 62.6484 34.8164C62.4047 35.9176 62.1067 37.0398 61.7695 38.1738C61.3835 37.4494 61.0091 36.7227 60.5918 36C60.1624 35.2566 59.6857 34.5887 59.2383 33.873ZM30.7559 33.8789C30.3099 34.5923 29.8362 35.259 29.4082 36C28.991 36.7228 28.6164 37.4493 28.2305 38.1738C27.8925 37.0375 27.5896 35.9139 27.3457 34.8105C28.4411 34.4644 29.5825 34.158 30.7559 33.8789ZM22.4062 36.7383C23.0383 39.4071 23.9152 42.1738 25.043 44.9941C23.9176 47.8078 23.0444 50.5694 22.4121 53.2324C17.1877 50.7096 14.25 47.5691 14.25 45C14.25 42.363 17.1056 39.3578 21.8906 36.9668C22.054 36.8851 22.2394 36.8181 22.4062 36.7383ZM67.5879 36.7676C72.8123 39.2904 75.75 42.4309 75.75 45C75.75 47.637 72.8944 50.6422 68.1094 53.0332C67.946 53.1149 67.7606 53.1819 67.5938 53.2617C66.9613 50.5913 66.0916 47.8221 64.9629 45C66.0869 42.1887 66.9561 39.4284 67.5879 36.7676ZM45 39C41.685 39 39 41.685 39 45C39 48.315 41.685 51 45 51C48.315 51 51 48.315 51 45C51 41.685 48.315 39 45 39ZM28.2305 51.8262C28.6166 52.5508 28.9966 53.277 29.4141 54C29.843 54.7429 30.3147 55.4118 30.7617 56.127C29.5715 55.8396 28.4272 55.5294 27.3516 55.1836C27.5954 54.0818 27.893 52.9609 28.2305 51.8262ZM61.7695 51.832C62.1071 52.9673 62.4105 54.0872 62.6543 55.1895C61.5589 55.5356 60.4175 55.842 59.2441 56.1211C59.6901 55.4077 60.1638 54.741 60.5918 54C61.0081 53.2787 61.3843 52.555 61.7695 51.832ZM26.5488 60.4336C29.1927 61.2254 32.047 61.8572 35.0742 62.291C36.9399 64.657 38.8713 66.7858 40.8516 68.6543C37.4851 70.9634 34.3838 72.2109 32.0391 72.2109C31.0911 72.2109 30.3 72.0209 29.625 71.6309C27.342 70.3139 26.1692 66.3361 26.4902 60.9961C26.5012 60.8131 26.5344 60.6188 26.5488 60.4336ZM63.4512 60.4336C63.4655 60.6188 63.4989 60.8131 63.5098 60.9961C63.8308 66.3361 62.658 70.3109 60.375 71.6309C59.7 72.0209 58.9119 72.2109 57.9609 72.2109C55.6162 72.2109 52.5149 70.9638 49.1484 68.6543C51.1289 66.7856 53.0656 64.6574 54.9316 62.291C57.9568 61.8572 60.809 61.2249 63.4512 60.4336ZM42.5625 62.9355C43.3718 62.9627 44.1769 63 45 63C45.8231 63 46.6282 62.9627 47.4375 62.9355C46.6208 63.7919 45.8132 64.5743 45 65.3145C44.1868 64.5742 43.3792 63.7919 42.5625 62.9355Z" fill="#080F56"/>
</svg>
