<svg width="90" height="91" viewBox="0 0 90 91" fill="none" xmlns="http://www.w3.org/2000/svg">
<path d="M45 9.52246C25.119 9.52246 9 25.6415 9 45.5225C9 62.3915 20.616 76.5065 36.276 80.4125C36.108 79.9265 36 79.3625 36 78.6635V72.5105C34.539 72.5105 32.091 72.5105 31.476 72.5105C29.013 72.5105 26.823 71.4515 25.761 69.4835C24.582 67.2965 24.378 63.9515 21.456 61.9055C20.589 61.2245 21.249 60.4475 22.248 60.5525C24.093 61.0745 25.623 62.3405 27.063 64.2185C28.497 66.0995 29.172 66.5255 31.851 66.5255C33.15 66.5255 35.094 66.4505 36.924 66.1625C37.908 63.6635 39.609 61.3625 41.688 60.2765C29.7 59.0435 23.979 53.0795 23.979 44.9825C23.979 41.4965 25.464 38.1245 27.987 35.2835C27.159 32.4635 26.118 26.7125 28.305 24.5225C33.699 24.5225 36.96 28.0205 37.743 28.9655C40.431 28.0445 43.383 27.5225 46.485 27.5225C49.593 27.5225 52.557 28.0445 55.251 28.9715C56.025 28.0325 59.289 24.5225 64.695 24.5225C66.891 26.7155 65.838 32.4905 65.001 35.3045C67.509 38.1395 68.985 41.5025 68.985 44.9825C68.985 53.0735 63.273 59.0345 51.303 60.2735C54.597 61.9925 57 66.8225 57 70.4615V78.6635C57 78.9755 56.931 79.2005 56.895 79.4675C70.923 74.5505 81 61.2305 81 45.5225C81 25.6415 64.881 9.52246 45 9.52246Z" fill="#080F56"/>
</svg>
