<svg width="90" height="91" viewBox="0 0 90 91" fill="none" xmlns="http://www.w3.org/2000/svg">
<path d="M72 12.5225H18C14.685 12.5225 12 15.2075 12 18.5225V72.5225C12 75.8375 14.685 78.5225 18 78.5225H72C75.315 78.5225 78 75.8375 78 72.5225V18.5225C78 15.2075 75.315 12.5225 72 12.5225ZM45 61.6625C45 66.9935 41.73 69.9815 36.3 69.9815C30.936 69.9815 27.519 66.8465 27.519 61.7765H33.33C33.345 63.6575 34.467 64.8455 36.201 64.8455C37.983 64.8455 38.94 63.7235 38.94 61.6115V45.5165H45V61.6625ZM61.443 69.9815C55.416 69.9815 51.624 67.1435 51.522 62.5535H57.3C57.447 64.2875 59.178 65.3915 61.689 65.3915C63.951 65.3915 65.505 64.3025 65.505 62.7335C65.505 61.4135 64.464 60.7025 61.74 60.1595L58.605 59.5325C54.246 58.7075 52.002 56.3315 52.002 52.5845C52.002 47.9285 55.734 44.8745 61.476 44.8745C67.056 44.8745 70.917 47.8955 71.016 52.3025H65.421C65.289 50.6195 63.687 49.4465 61.554 49.4465C59.427 49.4465 58.026 50.4545 58.026 52.0385C58.026 53.3435 59.082 54.1025 61.59 54.5975L64.656 55.1915C69.363 56.1005 71.475 58.2275 71.475 62.0075C71.478 66.9785 67.683 69.9815 61.443 69.9815Z" fill="#080F56"/>
</svg>
